<?xml version="1.0" encoding="UTF-8"?>
<svg xmlns="http://www.w3.org/2000/svg" width="128" height="128" viewBox="0 0 128 128">
  <defs>
    <linearGradient id="orb" x1="0" y1="0" x2="0" y2="1">
      <stop offset="0" stop-color="#99c1f1"/>
      <stop offset="0.55" stop-color="#62a0ea"/>
      <stop offset="1" stop-color="#3584e4"/>
    </linearGradient>
    <clipPath id="orb-clip">
      <circle cx="64" cy="64" r="40"/>
    </clipPath>
    <clipPath id="node-a"><circle cx="64" cy="85" r="9"/></clipPath>
    <clipPath id="node-b"><circle cx="21.1" cy="77.5" r="7"/></clipPath>
    <clipPath id="node-c"><circle cx="106.9" cy="77.5" r="7"/></clipPath>
  </defs>

  <path d="M 8 64 A 56 21 0 0 1 120 64" fill="none" stroke="#deddda" stroke-width="6"/>

  <circle cx="64" cy="64" r="40" fill="#1a5fb4"/>
  <g clip-path="url(#orb-clip)">
    <circle cx="64" cy="60" r="40" fill="url(#orb)"/>
  </g>
  <circle cx="64" cy="56" r="15" fill="#ffffff" fill-opacity="0.35"/>
  <circle cx="64" cy="56" r="10" fill="#ffffff"/>

  <path d="M 8 64 A 56 21 0 0 0 120 64" fill="none" stroke="#f6f5f4" stroke-width="6"/>

  <circle cx="64" cy="85" r="9" fill="#c0bfbc"/>
  <g clip-path="url(#node-a)"><circle cx="64" cy="83" r="9" fill="#ffffff"/></g>
  <circle cx="21.1" cy="77.5" r="7" fill="#c0bfbc"/>
  <g clip-path="url(#node-b)"><circle cx="21.1" cy="75.5" r="7" fill="#ffffff"/></g>
  <circle cx="106.9" cy="77.5" r="7" fill="#c0bfbc"/>
  <g clip-path="url(#node-c)"><circle cx="106.9" cy="75.5" r="7" fill="#ffffff"/></g>
</svg>
