<?xml version="1.0" encoding="UTF-8" standalone="no"?>
<svg
   version="1.1"
   width="7.8739996in"
   height="7.8739996in"
   viewBox="0 0 566.92907 566.92907"
   id="svg12"
   xmlns="http://www.w3.org/2000/svg"
   xmlns:svg="http://www.w3.org/2000/svg">
  <defs
     id="defs12" />
  <path
     d="m 153.1551,567.1446 c -32.904,0 -59.6863,-4.1826 -80.3472,-12.6417 C 52.0379,546.0435 35.6403,532.5463 23.5063,514.0117 14.7611,500.8 8.6391,483.8811 5.0321,463.2557 1.5338,442.7249 -0.2154,407.9367 -0.2154,358.8911 V 128.0166 h 116.75 v 268.7992 c 0,40.5862 2.9511,65.7743 8.854,75.4693 5.7943,9.6001 16.1793,14.4474 31.1553,14.4474 12.8069,0 22.1972,-3.5791 28.3014,-10.6793 V 0.2151 h 152.2451 v 451.2816 h 182.5217 c 0,38.5492 0,77.0987 0,115.6479 z M 424.7524,46.0406 h 96.2782 c 25.1257,0 45.6834,20.5574 45.6834,45.6834 v 71.7886 c 0,25.126 -20.5577,45.6834 -45.6834,45.6834 H 379.0689 V 91.724 c 0,-25.126 20.5575,-45.6834 45.6835,-45.6834 z"
     style="fill:#3c82f6;fill-rule:evenodd"
     id="path4" />
</svg>
